<svg width="69" height="60" viewBox="0 0 69 60" fill="none" xmlns="http://www.w3.org/2000/svg">
<path d="M1.43467 0C0.656664 0.0819125 -0.00316535 0.893252 1.14235e-05 1.76495V8.8237C1.14235e-05 9.74745 0.754273 10.588 1.58301 10.5886H17.413C18.2417 10.5886 18.996 9.748 18.996 8.8237V1.76495C18.996 0.841196 18.2417 0.000612246 17.413 0H1.43467ZM25.9704 0C25.1924 0.0819125 24.5325 0.893252 24.5357 1.76495V8.8237C24.5357 9.74745 25.29 10.588 26.1187 10.5886H41.9487C42.7774 10.5886 43.5317 9.748 43.5317 8.8237V1.76495C43.5317 0.841196 42.7774 0.000612246 41.9487 0H25.9704ZM50.5061 0C49.7281 0.0819125 49.0683 0.893252 49.0714 1.76495V8.8237C49.0714 9.74745 49.8257 10.588 50.6544 10.5886H66.4844C67.3131 10.5886 68.0674 9.748 68.0674 8.8237V1.76495C68.0674 0.841196 67.3131 0.000612246 66.4844 0H50.5061ZM13.3075 12.3531C12.5295 12.4351 11.8697 13.2464 11.8728 14.1181V21.1768C11.8728 22.1006 12.6271 22.9412 13.4558 22.9418H30.0773C30.906 22.9418 31.6603 22.1011 31.6603 21.1768V14.1181C31.6603 13.1943 30.906 12.3538 30.0773 12.3531H13.3075ZM37.8432 12.3531C37.0652 12.4351 36.4054 13.2464 36.4086 14.1181V21.1768C36.4086 22.1006 37.1628 22.9412 37.9916 22.9418H54.613C55.4417 22.9418 56.196 22.1011 56.196 21.1768V14.1181C56.196 13.1943 55.4417 12.3538 54.613 12.3531H37.8432ZM1.43605 24.7057C0.658044 24.7876 -0.0017849 25.5989 0.00139187 26.4706V33.5294C0.00139187 34.4531 0.755655 35.2937 1.58439 35.2943H17.4144C18.2431 35.2943 18.9974 34.4537 18.9974 33.5294V26.4706C18.9974 25.5469 18.2431 24.7063 17.4144 24.7057H1.43605ZM25.9718 24.7057C25.1938 24.7876 24.5339 25.5989 24.5371 26.4706V33.5294C24.5371 34.4531 25.2914 35.2937 26.1201 35.2943H41.9501C42.7788 35.2943 43.5331 34.4537 43.5331 33.5294V26.4706C43.5331 25.5469 42.7788 24.7063 41.9501 24.7057H25.9718ZM50.5075 24.7057C49.7295 24.7876 49.0696 25.5989 49.0728 26.4706V33.5294C49.0728 34.4531 49.8271 35.2937 50.6558 35.2943H66.4858C67.3145 35.2943 68.0688 34.4537 68.0688 33.5294V26.4706C68.0688 25.5469 67.3145 24.7063 66.4858 24.7057H50.5075ZM13.3089 37.0588C12.5309 37.1401 11.871 37.9521 11.8742 38.8238V45.8825C11.8742 46.8063 12.6285 47.6469 13.4572 47.6469H30.0786C30.9074 47.6469 31.6616 46.8062 31.6616 45.8825V38.8238C31.6616 37.9 30.9074 37.0594 30.0786 37.0588H13.3089ZM37.8446 37.0588C37.0666 37.1401 36.4068 37.9521 36.4099 38.8238V45.8825C36.4099 46.8063 37.1642 47.6469 37.9929 47.6469H54.6143C55.4431 47.6469 56.1973 46.8062 56.1973 45.8825V38.8238C56.1973 37.9 55.4431 37.0594 54.6143 37.0588H37.8446ZM1.43743 49.412C0.659426 49.4933 -0.000403401 50.3052 0.00277337 51.1763V58.235C0.00277337 59.1588 0.757035 59.9994 1.58577 60H17.4158C18.2445 60 18.9988 59.1594 18.9988 58.235V51.1763C18.9988 50.2525 18.2445 49.412 17.4158 49.412H1.43743ZM25.9731 49.412C25.1951 49.4933 24.5353 50.3052 24.5385 51.1763V58.235C24.5385 59.1588 25.2927 59.9994 26.1215 60H41.9515C42.7802 60 43.5345 59.1594 43.5345 58.235V51.1763C43.5345 50.2525 42.7802 49.412 41.9515 49.412H25.9731ZM50.5089 49.412C49.7309 49.4933 49.071 50.3052 49.0742 51.1763V58.235C49.0742 59.1588 49.8285 59.9994 50.6572 60H66.4872C67.3159 60 68.0702 59.1594 68.0702 58.235V51.1763C68.0702 50.2525 67.3159 49.412 66.4872 49.412H50.5089Z" fill="#F39131"/>
</svg>
