<?xml version="1.0" encoding="utf-8"?>
<!-- Generator: Adobe Illustrator 26.5.0, SVG Export Plug-In . SVG Version: 6.00 Build 0)  -->
<svg version="1.1" id="Capa_1" xmlns="http://www.w3.org/2000/svg" xmlns:xlink="http://www.w3.org/1999/xlink" x="0px" y="0px"
	 viewBox="0 0 17 10" style="enable-background:new 0 0 17 10;" xml:space="preserve">
<style type="text/css">
	.st0{fill:#FFFFFF;}
</style>
<path id="XMLID_00000151503122875754424220000011403648906957465768_" class="st0" d="M8.6,10c0.3,0,0.7-0.2,0.9-0.4l7.1-6.8
	c0.3-0.3,0.4-0.6,0.4-1c0-0.4-0.1-0.7-0.4-1c-0.3-0.3-0.6-0.4-1-0.4c-0.4,0-0.7,0.1-1,0.4L8.5,6.6L2.4,0.8C2,0.4,1.5,0.3,1,0.4
	C0.5,0.6,0.2,1,0,1.4c-0.1,0.5,0,1,0.4,1.4l7.1,6.8v0C7.8,9.9,8.2,10,8.6,10L8.6,10z"/>
</svg>
