<?xml version="1.0" encoding="utf-8"?>
<!-- Generator: Adobe Illustrator 24.0.2, SVG Export Plug-In . SVG Version: 6.00 Build 0)  -->
<svg version="1.1" id="Capa_1" xmlns="http://www.w3.org/2000/svg" xmlns:xlink="http://www.w3.org/1999/xlink" x="0px" y="0px"
	 viewBox="0 0 10.1 9.3" style="enable-background:new 0 0 10.1 9.3;" xml:space="preserve">
<style type="text/css">
	.st0{fill:#07495D;}
</style>
<path class="st0" d="M5,0.4c0,0.1,0,0.2-0.1,0.3L1,4.6l3.9,3.9c0.2,0.2,0.2,0.4,0,0.6c-0.2,0.2-0.4,0.2-0.6,0L0.1,4.9
	C0,4.8,0,4.5,0.1,4.3l4.2-4.2C4.5,0,4.8,0,4.9,0.1C5,0.2,5,0.3,5,0.4z"/>
<path class="st0" d="M10.1,0.4c0,0.1,0,0.2-0.1,0.3L6.1,4.6L10,8.5c0.2,0.2,0.2,0.4,0,0.6c-0.2,0.2-0.4,0.2-0.6,0L5.2,4.9
	C5,4.8,5,4.5,5.2,4.3l4.2-4.2C9.5,0,9.8,0,10,0.1C10.1,0.2,10.1,0.3,10.1,0.4z"/>
</svg>
