<svg width="22" height="25" viewBox="0 0 22 25" fill="none" xmlns="http://www.w3.org/2000/svg">
<path fill-rule="evenodd" clip-rule="evenodd" d="M12.7949 2.1085C14.2921 2.49191 15.6262 3.36802 16.6879 4.60022C18.1308 6.24315 19.0291 8.51594 19.0291 11.0349C19.0563 16.7852 19.8458 17.7437 20.6625 18.6745C21.1526 19.2496 21.6154 19.7973 21.9693 21.0841C22.0781 21.4127 21.8876 21.7686 21.5609 21.8507C21.5064 21.8781 21.4521 21.8781 21.3704 21.8781L14.1018 21.8784C14.1018 22.7547 13.7479 23.5214 13.2034 24.0964C12.6317 24.6714 11.8695 25 10.9983 25C10.1544 25 9.3649 24.6441 8.79321 24.0964C8.22152 23.5214 7.89484 22.7547 7.89484 21.8784H0.6262C0.272358 21.8784 0 21.6047 0 21.2486C0 21.1664 0.0271625 21.0843 0.0545089 21.0021C0.408351 19.7699 0.898371 19.2222 1.36123 18.6472C2.15077 17.6888 2.94012 16.7578 2.99463 11.0076C2.99463 8.48833 3.893 6.21583 5.33591 4.57289C6.39762 3.36801 7.7315 2.49191 9.22891 2.08117C9.22891 1.99903 9.20175 1.91688 9.20175 1.83473C9.20175 1.34185 9.39225 0.876294 9.74628 0.547707C10.073 0.21912 10.5358 0 11.0258 0C11.5159 0 11.9787 0.191613 12.3054 0.547707C12.6321 0.876294 12.8499 1.34185 12.8499 1.83473C12.8222 1.97152 12.7951 2.05367 12.7951 2.10849L12.7949 2.1085Z" fill="#07495D"/>
</svg>
