<svg width="68" height="60" viewBox="0 0 68 60" fill="none" xmlns="http://www.w3.org/2000/svg">
<path d="M65.443 14.444L49.9043 4.65305L50.4728 3.61697C50.6572 3.27519 50.7565 2.89393 50.7633 2.50533C50.7672 1.83361 50.5038 1.18838 50.0306 0.711209C49.5473 0.254362 48.9077 0 48.2433 0C47.5783 0 46.9388 0.254362 46.4554 0.711209L29.5898 17.5392L35.5531 22.3022C35.9061 22.5813 36.3325 22.7522 36.7809 22.7951C37.2293 22.8374 37.6799 22.75 38.0798 22.5419C39.5772 21.7376 41.3843 21.7664 42.8552 22.618L52.0022 27.1153C53.0597 27.646 54.2306 27.9105 55.4133 27.8863C57.3991 27.8711 59.2998 27.0769 60.7064 25.6755L66.0504 20.3315V20.3309C66.8659 19.5165 67.2664 18.375 67.1389 17.2296C67.0109 16.0841 66.3685 15.0588 65.3939 14.444L65.443 14.444ZM59.9597 22.8832H59.9602C59.2693 23.5707 58.3652 24.0027 57.3963 24.1082C56.4273 24.2137 55.4515 23.9869 54.6287 23.4647L42.5258 17.1478C41.4954 16.2246 40.9743 14.8602 41.1271 13.4852C41.2799 12.1108 42.087 10.8943 43.2952 10.2191C44.5027 9.54457 45.9618 9.49495 47.2127 10.0855L59.3156 16.4023C60.3816 17.1169 61.0719 18.2708 61.1982 19.5483C61.2919 20.7874 60.8395 22.0057 59.9603 22.8833L59.9597 22.8832Z" fill="#07495D"/>
<path d="M52.7708 30.0838L51.1408 31.7137L46.0874 32.042L44.4326 36.4129L39.7705 36.7164L38.1157 41.075L33.4413 41.3785L31.7989 45.7494L27.1245 46.0529L25.4821 50.4238L20.8201 50.7273L19.1653 55.0982L14.4909 55.414L12.8485 59.7727L9.31106 60L0 50.6895L29.7648 20.9247L33.9464 24.2855C34.6954 24.8789 35.6012 25.2404 36.5532 25.3255C37.5047 25.4107 38.4607 25.2161 39.3033 24.7655C40.0523 24.3667 40.9564 24.3955 41.6783 24.8411L50.9133 29.3892C51.1642 29.5161 51.4214 29.6294 51.6842 29.7304C51.9623 29.8443 52.2404 29.9323 52.5308 30.0208L52.7708 30.0838Z" fill="#F39131"/>
</svg>
