<svg width="64" height="60" viewBox="0 0 64 60" fill="none" xmlns="http://www.w3.org/2000/svg">
<path d="M34.2062 20.2891C34.0204 20.1044 33.7946 19.9857 33.5427 19.9331L28.8971 18.9172L27.8885 14.2999C27.7821 13.7984 27.3839 13.4027 26.8663 13.2974L22.2207 12.2949L21.212 7.66417C21.1061 7.16267 20.7074 6.76693 20.2033 6.66166L15.5432 5.65867L14.5345 1.02795C14.3886 0.36854 13.7512 -0.0803211 13.0742 0.0120336L5.45553 0.948504C5.16328 0.988222 4.88451 1.12029 4.67218 1.31792L0.398177 5.57917C0.145886 5.82993 0 6.15963 0 6.51612C0 6.85923 0.145886 7.20186 0.398177 7.45259L26.5024 33.3974L36.9488 23.0153L34.2062 20.2891Z" fill="#F39131"/>
<path d="M58.8967 32.0446C55.4456 28.6278 50.6805 26.8994 45.7688 27.3349L41.9989 23.5881C41.4813 23.0737 40.6451 23.0737 40.1274 23.5881L27.0796 36.5562C26.562 37.0706 26.562 37.9018 27.0796 38.4163L30.8495 42.1631C30.4113 47.0312 32.1104 51.7542 35.588 55.2109C38.7075 58.2978 42.8485 60 47.2424 60C51.6493 60 55.7774 58.2983 58.8968 55.2109C62.0022 52.111 63.7144 48.0081 63.7144 43.6281C63.7144 39.2612 62.0023 35.1453 58.8963 32.0449L58.8967 32.0446ZM54.6093 50.9492C53.4942 52.044 52.0209 52.6508 50.4547 52.6508C48.8885 52.6508 47.4152 52.0441 46.3001 50.9492C44.0171 48.667 44.0171 44.9729 46.3001 42.6908C47.4152 41.5959 48.8885 40.9891 50.4547 40.9891C52.0209 40.9891 53.4942 41.5958 54.6093 42.6908C56.8923 44.9729 56.8923 48.6666 54.6093 50.9492Z" fill="#07495D"/>
</svg>
