<svg width="43" height="60" viewBox="0 0 43 60" fill="none" xmlns="http://www.w3.org/2000/svg">
<path d="M40.3327 15.8906H2.42269C1.06863 15.8906 0 14.8219 0 13.4679C0 12.1139 1.06869 11.0452 2.42269 11.0452H40.3327C41.6868 11.0452 42.7554 12.1139 42.7554 13.4679C42.7554 14.8214 41.6867 15.8906 40.3327 15.8906Z" fill="#07495D"/>
<path d="M4.70117 15.6056V30.7126C4.70117 39.0499 11.4707 45.7483 19.7369 45.7483H22.8724C31.2098 45.7483 37.9082 38.9788 37.9082 30.7126V15.6056H4.70117ZM18.5255 40.4751L20.5918 31.1403H15.1762L23.941 18.1711L22.1595 27.5059H27.5751L18.5255 40.4751Z" fill="#F39131"/>
<path d="M14.3239 2.42269V9.61977H9.47852V2.42269C9.47852 1.06864 10.5472 1.73311e-07 11.9012 1.73311e-07C13.2553 -0.000496988 14.3239 1.06869 14.3239 2.42269Z" fill="#07495D"/>
<path d="M33.277 2.42269V9.61977H28.4316V2.42269C28.4316 1.06864 29.5003 1.73311e-07 30.8543 1.73311e-07C32.1367 -0.000496988 33.277 1.06869 33.277 2.42269Z" fill="#07495D"/>
<path d="M18.9551 57.5773V47.2448H23.8005V57.5773C23.8005 58.9314 22.7318 60 21.3778 60C20.0237 60.0005 18.9551 58.9313 18.9551 57.5773Z" fill="#07495D"/>
</svg>
