<svg width="14" height="22" viewBox="0 0 14 22" fill="none" xmlns="http://www.w3.org/2000/svg">
<path d="M11.1928 7.57474C11.1638 8.08074 11.1036 8.58441 11.0085 9.07865C10.8736 9.77879 10.3042 10.2604 9.66867 10.2604C9.57653 10.2604 9.4823 10.2502 9.38871 10.229C8.64811 10.0624 8.17221 9.27664 8.32604 8.47445C8.42465 7.96301 8.47403 7.43654 8.47403 6.90935C8.47403 3.87416 6.83979 1.24592 4.4742 0C6.10922 7.8338 0 7.85894 0 14.4176C0 18.6054 3.13376 22 6.99938 22C10.8664 22 14 18.6056 14 14.4176C14.0016 11.618 12.4289 9.11249 11.1928 7.57473L11.1928 7.57474ZM7.00169 20.4277C5.62134 20.4277 4.50201 19.2153 4.50201 17.7193C4.50201 16.7197 5.06416 15.8256 5.50445 15.2765C5.52987 15.7189 5.62411 16.1487 5.78813 16.5549C5.86941 16.7545 6.0493 16.8731 6.23796 16.8731C6.30402 16.8731 6.36846 16.8589 6.43242 16.829C6.68048 16.7119 6.79365 16.4001 6.68776 16.1321C6.54706 15.7855 6.47597 15.4179 6.47597 15.0375C6.47597 13.9533 7.06064 13.015 7.90652 12.5695C7.3212 15.3674 9.50304 15.3762 9.50304 17.7184C9.50142 19.2155 8.38209 20.4279 7.00174 20.4279L7.00169 20.4277Z" fill="#D70000"/>
</svg>
