<svg width="10" height="14" viewBox="0 0 10 14" fill="none" xmlns="http://www.w3.org/2000/svg">
<path d="M5 0C2.24292 0 0 2.29347 0 5.11321C0 6.18771 0.326667 7.21811 0.94375 8.09467L1.07479 8.28281L4.66687 13.4659C4.74542 13.5729 4.86896 13.6364 5 13.6364C5.13083 13.6364 5.25458 13.5729 5.33312 13.4659L8.88021 8.34439L9.05521 8.09617C9.67333 7.21811 10 6.18771 10 5.11321C10 2.29347 7.75708 0 5 0ZM5 6.81797C4.08104 6.81797 3.33333 6.05327 3.33333 5.11321C3.33333 4.17315 4.08083 3.40888 5 3.40888C5.91917 3.40888 6.66667 4.17315 6.66667 5.11321C6.66667 6.05327 5.91917 6.81797 5 6.81797Z" fill="#2A2A2A"/>
</svg>
