<svg width="61" height="60" viewBox="0 0 61 60" fill="none" xmlns="http://www.w3.org/2000/svg">
<path d="M46.8663 37.2134L30.3421 20.6892C32.2222 15.2242 30.9988 8.9305 26.6386 4.56836C20.945 -1.12523 11.9466 -1.49474 5.82142 3.44805L19.42 11.3012L13.3234 21.8611L0.0627914 14.2031C-0.33582 18.6484 1.1631 23.2351 4.56847 26.6405C8.92869 31.0008 15.2248 32.224 20.6868 30.342L37.211 46.8688C36.7023 50.3307 37.7691 53.9782 40.4328 56.6425C44.9096 61.1192 52.167 61.1192 56.6408 56.6425C61.1175 52.1657 61.1175 44.9107 56.6408 40.4345C53.977 37.7707 50.3295 36.7065 46.8656 37.2151L46.8663 37.2134ZM51.8137 51.8158C50.0032 53.6238 47.0704 53.6238 45.2599 51.8158C43.4493 50.0033 43.4493 47.0725 45.2599 45.26C47.0704 43.452 50.0032 43.452 51.8137 45.26C53.6238 47.0725 53.6238 50.0052 51.8137 51.8158Z" fill="#07495D"/>
<path d="M15.5761 35.5503C15.3205 35.5503 15.0675 35.5232 14.8119 35.5122L6.44998 43.8766C2.92553 47.3991 2.92553 53.1102 6.44998 56.6348C9.97251 60.1592 15.6861 60.1592 19.2081 56.6348L30.0147 45.8283L19.3737 35.1852C18.1278 35.4273 16.86 35.5503 15.5761 35.5503L15.5761 35.5503Z" fill="#F39131"/>
<path d="M52.3786 15.1454L56.5953 13.7341L60.736 6.83512L56.2527 2.35181L49.3563 6.4925L47.9424 10.7092L37.2324 21.4192C38.4403 22.6271 40.0467 24.2334 41.6686 25.8554L52.3786 15.1454Z" fill="#F39131"/>
</svg>
