<svg width="52" height="60" viewBox="0 0 52 60" fill="none" xmlns="http://www.w3.org/2000/svg">
<path fill-rule="evenodd" clip-rule="evenodd" d="M13.5035 0C13.5035 0 12.7957 5.94755 13.2818 7.97375C14.1776 11.8752 18.736 13.8336 22.2702 12.7388C23.465 15.2545 24.1229 17.9854 24.465 20.7383C24.4908 20.9521 24.4796 21.3374 24.4908 21.8167H26.6938C26.6792 21.3379 26.6733 20.8245 26.63 20.4699C26.5564 19.8786 26.4649 19.2844 26.3616 18.6887C26.4585 18.5601 27.9636 16.5812 29.6644 14.9767C29.7633 14.8827 30 14.7507 30.1841 14.6314C30.4671 14.8998 30.7739 15.137 31.0964 15.3089C32.3788 15.9947 34.1493 15.9387 35.4605 15.3089C37.5593 14.3007 39.8246 9.85812 39.8246 9.85812C36.7406 7.53628 34.1673 7.29713 31.0964 8.76709C29.9138 9.33307 28.9143 10.7294 28.9143 12.0402C28.9143 12.2706 28.9796 12.4985 29.038 12.7265C28.7263 12.9271 28.4268 13.1439 28.1647 13.3913C27.2446 14.2592 26.4006 15.1988 25.7522 15.9655C25.3699 14.5384 24.8643 13.1317 24.2136 11.7675C27.153 9.56396 26.513 5.69174 24.0816 3.12451C21.5712 0.473869 13.5034 0.000423806 13.5034 0.000423806L13.5035 0Z" fill="#F39131"/>
<path d="M2.72758 29.9963C1.21672 29.9963 0 28.7796 0 27.2687V26.1777C0 24.6668 1.21669 23.4501 2.72758 23.4501H48.5509C50.0617 23.4501 51.2785 24.6668 51.2785 26.1777V27.2687C51.2785 28.7795 50.0618 29.9963 48.5509 29.9963H2.72758Z" fill="#07495D"/>
<path fill-rule="evenodd" clip-rule="evenodd" d="M3.82031 31.6496L5.66534 39.6517L7.34278 46.9266C7.34278 46.9266 8.55607 52.1898 9.18781 54.9286C9.87214 57.8973 12.513 60 15.5567 60H35.7189C38.7626 60 41.4035 57.8973 42.0878 54.9286L47.4548 31.6491L3.82031 31.6496Z" fill="#07495D"/>
</svg>
