<svg width="17" height="18" viewBox="0 0 17 18" fill="none" xmlns="http://www.w3.org/2000/svg">
<path d="M0.854295 9.79998H9.67489L8.07309 11.42C7.99045 11.4951 7.92487 11.5851 7.88032 11.6845C7.83576 11.784 7.81313 11.8908 7.8138 11.9987C7.81447 12.1065 7.83842 12.2131 7.88421 12.3121C7.93 12.4111 7.99668 12.5003 8.08025 12.5745C8.16382 12.6488 8.26255 12.7064 8.37051 12.7439C8.47846 12.7815 8.59342 12.7982 8.70846 12.7931C8.8235 12.7881 8.93625 12.7612 9.03994 12.7143C9.14362 12.6673 9.2361 12.6012 9.31182 12.52L12.1096 9.71998C12.2432 9.65079 12.3545 9.54938 12.432 9.42628C12.5095 9.30318 12.5503 9.16288 12.5503 9.01998C12.5503 8.87707 12.5095 8.73678 12.432 8.61368C12.3545 8.49057 12.2432 8.38916 12.1096 8.31998L9.31182 5.51998C9.2361 5.43871 9.14362 5.37262 9.03994 5.32567C8.93625 5.27873 8.8235 5.2519 8.70846 5.2468C8.59342 5.24171 8.47846 5.25845 8.37051 5.29601C8.26255 5.33358 8.16382 5.3912 8.08025 5.46541C7.99668 5.53962 7.93 5.62889 7.88421 5.72785C7.83842 5.82681 7.81447 5.93342 7.8138 6.04126C7.81313 6.14911 7.83576 6.25597 7.88032 6.35542C7.92487 6.45488 7.99045 6.54486 8.07309 6.61998L9.67489 8.19998H0.854295C0.627722 8.19998 0.410429 8.28426 0.250217 8.43429C0.0900058 8.58432 0 8.7878 0 8.99998C0 9.21215 0.0900058 9.41563 0.250217 9.56566C0.410429 9.71569 0.627722 9.79998 0.854295 9.79998V9.79998Z" fill="#2A2A2A"/>
<path d="M14.822 0H6.70622C6.19643 0 5.70752 0.189642 5.34705 0.527208C4.98657 0.864773 4.78406 1.32261 4.78406 1.8V4.8C4.78406 5.01217 4.87406 5.21566 5.03428 5.36569C5.19449 5.51571 5.41178 5.6 5.63835 5.6C5.86493 5.6 6.08222 5.51571 6.24243 5.36569C6.40264 5.21566 6.49265 5.01217 6.49265 4.8V1.8C6.49265 1.74696 6.51515 1.69609 6.5552 1.65858C6.59526 1.62107 6.64958 1.6 6.70622 1.6H14.822C14.8787 1.6 14.933 1.62107 14.973 1.65858C15.0131 1.69609 15.0356 1.74696 15.0356 1.8V16.2C15.0356 16.253 15.0131 16.3039 14.973 16.3414C14.933 16.3789 14.8787 16.4 14.822 16.4H6.70622C6.64958 16.4 6.59526 16.3789 6.5552 16.3414C6.51515 16.3039 6.49265 16.253 6.49265 16.2V13.2C6.49265 12.9878 6.40264 12.7843 6.24243 12.6343C6.08222 12.4843 5.86493 12.4 5.63835 12.4C5.41178 12.4 5.19449 12.4843 5.03428 12.6343C4.87406 12.7843 4.78406 12.9878 4.78406 13.2V16.2C4.78406 16.6774 4.98657 17.1352 5.34705 17.4728C5.70752 17.8104 6.19643 18 6.70622 18H14.822C15.3318 18 15.8207 17.8104 16.1812 17.4728C16.5417 17.1352 16.7442 16.6774 16.7442 16.2V1.8C16.7442 1.32261 16.5417 0.864773 16.1812 0.527208C15.8207 0.189642 15.3318 0 14.822 0V0Z" fill="#2A2A2A"/>
</svg>
