<svg width="71" height="60" viewBox="0 0 71 60" fill="none" xmlns="http://www.w3.org/2000/svg">
<path d="M49.0295 35.5472C47.1532 34.5151 45.8396 32.7323 45.1825 30.7624C43.7754 26.1648 39.7407 22.787 35.0495 22.787C30.3583 22.787 26.2299 26.1646 24.9166 30.7624C24.2595 32.8265 22.9459 34.515 21.0696 35.5472C13.845 39.6756 12.25 48.0258 12.25 53.8429C12.25 61.9117 27.7306 62.2867 32.3283 53.5614C33.454 51.4037 36.6445 51.4037 37.8638 53.5614C42.4613 62.1932 57.9421 61.9118 57.9421 53.8429C57.8485 48.0259 56.3478 39.6756 49.0296 35.5472H49.0295Z" fill="#07495D"/>
<path d="M16.6673 18.1043C21.3572 22.7942 22.3971 29.3585 18.9893 32.7663C15.5815 36.1735 9.01715 35.1342 4.3273 30.4444C-0.362557 25.7545 -1.40182 19.1902 2.00532 15.7824C5.41314 12.3752 11.9775 13.4145 16.6673 18.1043Z" fill="#07495D"/>
<path d="M33.2842 7.99652C34.9642 13.6058 32.5833 19.2741 27.9668 20.657C23.3501 22.0393 18.2459 18.6125 16.566 13.003C14.886 7.39369 17.2669 1.72589 21.8835 0.343165C26.5001 -1.03972 31.6043 2.38702 33.2842 7.99652Z" fill="#07495D"/>
<path d="M68.1534 15.7856C71.5612 19.1934 70.5212 25.7577 65.8314 30.4476C61.1415 35.1374 54.5772 36.1774 51.1694 32.7696C47.7622 29.3617 48.8015 22.7974 53.4914 18.1076C58.1812 13.4177 64.7462 12.3784 68.1534 15.7856Z" fill="#07495D"/>
<path d="M48.2407 0.306291C52.8573 1.68917 55.2376 7.35682 53.5575 12.9662C51.8782 18.5761 46.7733 22.0024 42.1567 20.6202C37.5401 19.2373 35.1598 13.569 36.8392 7.95964C38.5192 2.35031 43.624 -1.07594 48.2407 0.306291Z" fill="#07495D"/>
</svg>
