<svg width="96" height="60" viewBox="0 0 96 60" fill="none" xmlns="http://www.w3.org/2000/svg">
<path d="M31.7047 30.9024V29.1969C31.7047 24.883 35.2167 21.371 39.4305 21.371H39.8315L41.2361 16.9562C42.6407 12.6423 45.8517 9.33118 49.8646 7.82584L49.4636 6.62208C48.1591 2.60916 44.5472 0 40.3332 0H18.4609C14.2469 0 10.635 2.70914 9.3305 6.62208L6.82221 14.3478H3.01014C1.30458 14.3478 0 15.6523 0 17.3579V19.0635C0 20.769 1.40461 22.0736 3.01014 22.0736H4.11382C3.51194 24.8829 3.21099 27.692 3.21099 30.6022V45.251C3.21099 46.9565 4.51552 48.2611 6.22113 48.2611H11.2377C12.9433 48.2611 14.2479 46.9566 14.2479 45.251V40.5354H34.9162C34.9162 39.4317 35.0163 38.4281 35.2172 37.3244C33.1098 35.9191 31.7052 33.6116 31.7052 30.9025L31.7047 30.9024ZM18.5614 32.307H12.4412C11.4376 32.307 10.6356 31.5043 10.6356 30.4006V27.4913C10.6356 26.3876 11.6392 25.4848 12.8429 25.6857L18.5621 26.5885C19.2648 26.6886 19.8667 27.2912 20.0668 27.9931L20.4679 29.9996C20.668 31.2033 19.7652 32.307 18.5614 32.307L18.5614 32.307Z" fill="#F39131"/>
<path d="M92.3037 26.1869H88.4909L85.9826 18.4611C84.6781 14.4482 81.0662 11.8391 76.8522 11.8391L54.8796 11.8398C50.6656 11.8398 47.0537 14.5489 45.7492 18.4618L43.2409 26.1876H39.4281C37.7226 26.1876 36.418 27.4921 36.418 29.1977V30.9032C36.418 32.6088 37.7225 33.9134 39.4281 33.9134H40.5318C39.9299 36.7227 39.629 39.5318 39.629 42.4419V56.9899C39.629 58.6954 40.9335 60 42.6391 60H47.6557C49.3612 60 50.6658 58.6955 50.6658 56.9899V52.3743H81.0664V56.9899C81.0664 58.6954 82.3709 60 84.0765 60H89.0931C90.7987 60 92.1032 58.6955 92.1032 56.9899L92.1025 42.4412C92.1025 39.532 91.8016 36.722 91.1997 33.9127H92.3034C94.009 33.9127 95.3135 32.6081 95.3135 30.9025V29.197C95.3135 27.4914 94.009 26.1868 92.3034 26.1868L92.3037 26.1869ZM54.9803 44.0459H48.86C47.8564 44.0459 46.9535 43.2432 46.9535 42.1394V39.2302C46.9535 38.1265 47.9571 37.2237 49.0609 37.4246L54.7801 38.3274C55.5829 38.4275 56.1847 39.0301 56.2848 39.732L56.6858 41.7385C57.0876 42.9422 56.1847 44.0459 54.9803 44.0459L54.9803 44.0459ZM84.7788 42.2403C84.7788 43.2439 83.9761 44.1468 82.8723 44.1468H76.7521C75.5483 44.1468 74.6448 43.0431 74.9465 41.9395L75.3475 39.933C75.5484 39.2304 76.1502 38.6285 76.8522 38.5284L82.5715 37.6256C83.6752 37.4247 84.6788 38.3283 84.6788 39.4312V42.2405L84.7788 42.2403Z" fill="#07495D"/>
</svg>
