<svg width="60" height="60" viewBox="0 0 60 60" fill="none" xmlns="http://www.w3.org/2000/svg">
<path d="M35.873 15.064V20.0427C35.873 20.4257 35.6179 20.6809 35.2349 20.6809H24.7667C24.3837 20.6809 24.1285 20.4257 24.1285 20.0427V15.064C24.1285 14.681 23.8733 14.4258 23.4904 14.4258H0.638579C0.255601 14.4258 0.000427431 14.681 0.000427431 15.064L0 59.3615C0 59.7444 0.255173 59.9996 0.638152 59.9996L59.3619 60C59.7449 60 60 59.7449 60 59.3619L60.0005 15.0633C60.0005 14.6803 59.7453 14.4252 59.3623 14.4252H36.6385C36.2556 14.4252 35.8726 14.6803 35.8726 15.0633L35.873 15.064Z" fill="#F39131"/>
<path d="M51.8295 0H35.4894C35.1064 0 34.7235 0.382978 34.8513 0.765957L36.0002 9.95744C36.0002 10.3404 36.3832 10.5956 36.6384 10.5956H57.7022C58.2129 10.5956 58.5959 9.95744 58.3403 9.57446L52.5956 0.382978C52.3405 0.127805 52.0849 0 51.8297 0H51.8295Z" fill="#F39131"/>
<path d="M9.0644 0.255601L2.29816 9.44708C1.91518 9.95744 2.29816 10.596 2.80894 10.596H23.4898C23.8727 10.596 24.1279 10.3408 24.1279 9.95786L25.2769 0.766384C25.2769 0.383406 25.0217 0.000427536 24.6387 0.000427536L9.57453 0C9.44715 0 9.19155 0.127805 9.06417 0.2556L9.0644 0.255601Z" fill="#F39131"/>
</svg>
