<svg width="37" height="60" viewBox="0 0 37 60" fill="none" xmlns="http://www.w3.org/2000/svg">
<path d="M34.3374 29.8423H2.40857C1.90271 29.8423 1.52344 30.2216 1.52344 30.7274V31.8653C1.52344 35.0266 3.60988 37.745 6.64458 38.4405L12.904 40.0211C13.3468 40.1477 13.5995 40.527 13.5364 40.9063L12.0189 52.8559C11.7662 54.6892 12.3351 56.4599 13.5364 57.8505C14.8008 59.2414 16.508 60 18.3415 60C20.1749 60 21.882 59.1779 23.1465 57.8505C24.4109 56.4595 24.8537 54.6261 24.664 52.8559L23.1465 40.9063C23.0834 40.4004 23.3992 40.0211 23.7789 40.0211L30.0384 38.4405C33.0731 37.6819 35.1595 34.9 35.1595 31.8653V30.7274C35.2226 30.2216 34.8433 29.8423 34.3374 29.8423H34.3374ZM18.4046 57.3454C16.4447 57.3454 14.8641 55.7016 14.8641 53.8049C14.8641 51.845 16.5078 50.2644 18.4046 50.2644C20.3645 50.2644 21.9451 51.9081 21.9451 53.8049C22.0717 55.7013 20.4279 57.3454 18.4046 57.3454Z" fill="#07495D"/>
<path d="M33.9588 28.641L36.8674 1.2644C36.994 0.568893 36.3615 0 35.7296 0H27.6998C27.0674 0 26.562 0.50586 26.4984 1.13783L25.866 7.2707C25.8029 7.77656 25.4867 8.15583 25.0439 8.2189C24.4115 8.34547 23.8425 7.90268 23.7795 7.33377L23.1471 1.2009C23.084 0.568464 22.5782 0.0630673 21.9457 0.0630673H17.2669C16.6345 0.0630673 16.1291 0.568927 16.0655 1.2009L14.7375 13.4666C14.6745 13.9725 14.3583 14.3518 13.9155 14.4148C13.283 14.5414 12.7141 14.0986 12.6511 13.5297L11.3231 1.26397C11.2601 0.631532 10.7542 0.126135 10.1217 0.126135H8.54109C7.90866 0.126135 7.40326 0.631994 7.3397 1.26397L6.70726 7.39683C6.6442 7.90269 6.32798 8.28197 5.8852 8.34503C5.25276 8.47161 4.6838 8.02882 4.6208 7.4599L3.98836 1.32703C3.9253 0.694599 3.41944 0.189202 2.78697 0.189202H1.14322C0.447719 0.189202 -0.0581748 0.758129 0.00538932 1.4536L2.91399 28.8302L33.9588 28.641Z" fill="#F39131"/>
</svg>
