<svg width="20" height="20" viewBox="0 0 20 20" fill="none" xmlns="http://www.w3.org/2000/svg">
<path fill-rule="evenodd" clip-rule="evenodd" d="M12.9597 3.69126C15.4709 6.08866 15.4709 9.97562 12.9597 12.3731C10.4486 14.7704 6.37738 14.7704 3.86628 12.3731C1.35519 9.97562 1.35519 6.08866 3.86628 3.69126C6.37738 1.29384 10.4486 1.29384 12.9597 3.69126ZM15.0222 13.0032C17.6303 9.85076 17.4102 5.26282 14.3619 2.35256C11.0764 -0.784187 5.7496 -0.784187 2.46411 2.35256C-0.821372 5.48932 -0.821372 10.575 2.46411 13.7117C5.51245 16.622 10.318 16.8321 13.6201 14.342L18.3074 18.8171C18.6946 19.1868 19.3224 19.1868 19.7095 18.8171C20.0968 18.4475 20.0968 17.8481 19.7095 17.4784L15.0222 13.0032Z" fill="#9D9D9D"/>
</svg>
