<svg width="96" height="60" viewBox="0 0 96 60" fill="none" xmlns="http://www.w3.org/2000/svg">
<path d="M10.0002 22.0003C10.0002 32.0784 14.0039 41.7437 21.1303 48.8699C28.2566 55.9961 37.9222 60 47.9999 60C58.0776 60 67.7432 55.9963 74.8694 48.8699C81.9957 41.7437 85.9995 32.0781 85.9995 22.0003V12.0006H9.99884L10.0002 22.0003ZM48.0006 21.0006C51.7137 21.0006 55.2742 22.4758 57.8998 25.1008C60.5254 27.7264 62.0007 31.2876 62.0007 35.0007C62.0007 38.7132 60.5255 42.2744 57.8998 44.9C55.2742 47.5256 51.7137 49.0002 48.0006 49.0002C44.2874 49.0002 40.7269 47.5256 38.1013 44.9C35.4757 42.2744 34.0004 38.7132 34.0004 35.0007C34.0004 31.2876 35.4756 27.7264 38.1013 25.1008C40.7269 22.4759 44.2874 21.0006 48.0006 21.0006ZM42.0006 35.0007C42.0006 33.409 42.6327 31.8828 43.7577 30.7579C44.8834 29.6329 46.4095 29.0008 48.0006 29.0008C49.5916 29.0008 51.1178 29.6329 52.2434 30.7579C53.3684 31.8829 54.0005 33.409 54.0005 35.0007C54.0005 36.5918 53.3684 38.118 52.2434 39.2429C51.1177 40.3685 49.5916 41.0007 48.0006 41.0007C46.4095 41.0007 44.8833 40.3685 43.7577 39.2429C42.6327 38.1179 42.0006 36.5917 42.0006 35.0007ZM96.0003 3.99977C96.0003 5.06114 95.5791 6.07832 94.8284 6.82832C94.0784 7.57832 93.0611 8.00018 92.0005 8.00018H3.99992C2.57092 8.00018 1.25039 7.23746 0.535882 5.99996C-0.178628 4.76246 -0.178628 3.23775 0.535882 2.00022C1.25039 0.762682 2.5709 0 3.99992 0H92.0005C93.0612 0 94.0784 0.421199 94.8284 1.17186C95.5791 1.92186 96.0003 2.93914 96.0003 3.99977Z" fill="#07495D"/>
</svg>
