<svg width="20" height="20" viewBox="0 0 20 20" fill="none" xmlns="http://www.w3.org/2000/svg">
<path d="M6.53902 5.91974L0.896798 6.75211L0.777657 6.77648C0.00839593 6.97955 -0.274251 7.97797 0.317007 8.56281L4.39885 12.601L3.43594 18.3046L3.42227 18.4216C3.37065 19.2297 4.2211 19.8144 4.95354 19.4237L10 16.7313L15.0465 19.4237L15.1519 19.473C15.8932 19.7725 16.7041 19.1324 16.5641 18.3046L15.6001 12.601L19.683 8.56283L19.7652 8.4722C20.27 7.84887 19.9204 6.87269 19.1032 6.75215L13.4599 5.91978L10.9377 0.731338C10.5541 -0.0575814 9.44553 -0.0575814 9.06189 0.731338L6.53902 5.91974Z" fill="#F7D560"/>
</svg>
