<svg width="22" height="20" viewBox="0 0 22 20" fill="none" xmlns="http://www.w3.org/2000/svg">
<path d="M16.1541 12.3127L20.6756 8.58533C21.3151 8.05594 20.9843 7.01927 20.1462 6.97527L14.3234 6.62234C13.9705 6.60034 13.6617 6.37972 13.5294 6.04893L11.3899 0.57903C11.0812 -0.19301 10.0004 -0.19301 9.69158 0.57903L7.55215 6.02687C7.41983 6.35765 7.11107 6.57827 6.75813 6.60029L0.913282 6.95322C0.075113 6.99737 -0.255688 8.034 0.383898 8.56327L4.90538 12.2686C5.17001 12.4892 5.30231 12.8642 5.21416 13.195L3.73641 18.8634C3.53794 19.6574 4.39813 20.2969 5.10384 19.8558L10.0223 16.7019C10.3311 16.5034 10.706 16.5034 10.9928 16.7019L15.9334 19.8558C16.6393 20.2969 17.4994 19.6574 17.3008 18.8634L15.8231 13.217C15.7569 12.8862 15.8672 12.5333 16.154 12.3127H16.1541Z" fill="#F39131"/>
</svg>
