<svg width="20" height="20" viewBox="0 0 20 20" fill="none" xmlns="http://www.w3.org/2000/svg">
<path d="M4.93746 19.681C4.61402 19.681 4.29057 19.5793 3.99211 19.3761C3.49455 19.0204 3.22092 18.4104 3.32039 17.7752L4.04177 12.8708C4.04177 12.7945 4.04177 12.7438 3.99195 12.6929L0.484547 9.18591C0.036801 8.72855 -0.112528 8.09328 0.0864572 7.48338C0.285426 6.87347 0.783003 6.44147 1.40491 6.36522L6.25618 5.67907C6.33083 5.67907 6.3805 5.62818 6.43032 5.55208L8.5946 1.05438C8.86822 0.495364 9.41561 0.139648 10.0375 0.139648C10.6594 0.139648 11.2068 0.495401 11.4804 1.05438L13.7192 5.52676C13.744 5.60302 13.8187 5.62838 13.8933 5.65375L18.5951 6.3399C19.217 6.44152 19.7145 6.84815 19.9135 7.45806C20.1125 8.06796 19.9633 8.70319 19.5154 9.16059L16.0327 12.7181C15.9829 12.769 15.9581 12.8451 15.9829 12.9214L16.7789 17.7241C16.8784 18.3594 16.6296 18.9693 16.132 19.3504C15.6345 19.7315 14.9628 19.7824 14.4155 19.4774L10.1615 17.2157C10.1117 17.1903 10.0122 17.1903 9.96258 17.2157L5.70862 19.5281C5.45983 19.63 5.18623 19.6809 4.93743 19.6809L4.93746 19.681ZM4.81314 11.8287C5.13658 12.1591 5.28571 12.6164 5.21123 13.0738L4.51452 17.9529C4.48969 18.1817 4.61401 18.3341 4.68866 18.385C4.76331 18.4358 4.93745 18.5375 5.13641 18.4103L9.39037 16.0979C9.81329 15.8692 10.2859 15.8692 10.7088 16.0979L14.9628 18.3596C15.1867 18.4612 15.3359 18.385 15.4105 18.3342C15.4852 18.2833 15.6095 18.1564 15.5847 17.9022L14.7886 13.0995C14.714 12.6421 14.8633 12.1592 15.1867 11.829L18.6694 8.27144C18.8436 8.09356 18.7937 7.89032 18.7689 7.81407C18.7441 7.73782 18.6694 7.55994 18.4206 7.50921L13.7189 6.82306C13.2711 6.7468 12.8731 6.46731 12.6492 6.0353L10.4351 1.56292C10.3357 1.33415 10.1615 1.35967 10.062 1.33415C9.98739 1.33415 9.78842 1.35951 9.68894 1.58828L7.49999 6.08598C7.30102 6.51799 6.90292 6.82286 6.43034 6.87374L1.57947 7.5599C1.33068 7.58526 1.25603 7.78867 1.2312 7.86476C1.20637 7.94101 1.15654 8.14426 1.33068 8.32212L4.81314 11.8287Z" fill="#F7D560"/>
</svg>
