<svg width="60" height="60" viewBox="0 0 60 60" fill="none" xmlns="http://www.w3.org/2000/svg">
<path d="M56.2495 12.4997H53.7493C51.6871 12.4997 49.9994 14.1874 49.9994 16.2497V38.7495C49.9994 39.4369 49.437 39.9993 48.7496 39.9993L11.2499 39.9998C10.5625 39.9998 10.0001 39.4374 10.0001 38.75V16.2502C10.0001 14.188 8.31234 12.5002 6.25012 12.5002H3.74997C1.68775 12.5002 0 14.188 0 16.2502V46.2499C0 48.3247 1.68775 49.9999 3.74997 49.9999H7.65007L8.76281 58.9123C8.83762 59.5375 9.3749 60 10.0001 60H14.9999C15.625 60 16.1623 59.5375 16.2371 58.9123L17.3499 49.9999H42.6501L43.7628 58.9123C43.8376 59.5375 44.3749 60 45.0001 60H49.9999C50.625 60 51.1623 59.5375 51.2371 58.9123L52.3499 49.9999H56.25C58.3122 49.9999 59.9999 48.3247 59.9999 46.2499V16.2502C59.9999 14.188 58.3122 12.5002 56.25 12.5002L56.2495 12.4997Z" fill="#07495D"/>
<path d="M18.0752 32.5004C16.3756 32.5004 14.713 33.0879 13.3878 34.138L12.5 34.8505V37.5002H47.4992V35.5128L46.6742 34.6877C45.2874 33.3004 43.3496 32.5004 41.3747 32.5004L18.0752 32.5004Z" fill="#F39131"/>
<path d="M47.5004 16.2497C47.5004 13.2248 49.6506 10.6996 52.5001 10.1246V8.74974C52.5001 3.92474 48.5749 0 43.7504 0H16.2497C11.4247 0 7.5 3.92528 7.5 8.74974V10.1246C10.3501 10.6996 12.4998 13.2248 12.4998 16.2497V31.6995C14.1373 30.5994 16.087 29.9999 18.0745 29.9999H41.3752C43.6253 29.9999 45.7503 30.7501 47.5002 32.0998L47.5004 16.2497ZM19.9997 17.5C18.6248 17.5 17.4996 16.3873 17.4996 14.9999C17.4996 13.625 18.6243 12.4997 19.9997 12.4997C21.3746 12.4997 22.4999 13.6245 22.4999 14.9999C22.4999 16.3872 21.3751 17.5 19.9997 17.5ZM29.9998 17.5C28.6249 17.5 27.4996 16.3873 27.4996 14.9999C27.4996 13.625 28.6244 12.4997 29.9998 12.4997C31.3747 12.4997 32.5 13.6245 32.5 14.9999C32.5 16.3872 31.3747 17.5 29.9998 17.5ZM39.9999 17.5C38.625 17.5 37.4997 16.3873 37.4997 14.9999C37.4997 13.625 38.6245 12.4997 39.9999 12.4997C41.3748 12.4997 42.5 13.6245 42.5 14.9999C42.4995 16.3872 41.3747 17.5 39.9999 17.5Z" fill="#07495D"/>
</svg>
